<?xml version="1.0" standalone="no"?>
<!DOCTYPE svg PUBLIC "-//W3C//DTD SVG 20010904//EN"
 "http://www.w3.org/TR/2001/REC-SVG-20010904/DTD/svg10.dtd">
<svg version="1.0" xmlns="http://www.w3.org/2000/svg"
 width="225.000000pt" height="225.000000pt" viewBox="0 0 225.000000 225.000000"
 preserveAspectRatio="xMidYMid meet">
<metadata>
Created by potrace 1.16, written by Peter Selinger 2001-2019
</metadata>
<g transform="translate(0.000000,225.000000) scale(0.100000,-0.100000)"
fill="#000000" stroke="none">
<path d="M1163 1840 c-11 -12 -30 -20 -50 -20 -42 0 -63 -35 -45 -75 l12 -25
212 2 213 3 0 45 c0 41 -2 45 -26 48 -15 2 -35 12 -45 23 -15 17 -31 19 -136
19 -106 0 -120 -2 -135 -20z m254 -30 c4 -15 14 -20 40 -20 30 0 34 -3 31 -22
-3 -23 -3 -23 -198 -23 -195 0 -195 0 -198 23 -3 20 1 22 42 22 39 0 46 3 46
20 0 19 7 20 116 20 107 0 116 -1 121 -20z"/>
<path d="M742 1768 c-9 -9 -12 -99 -12 -343 l0 -331 31 -23 c44 -33 73 -102
65 -156 -4 -23 -13 -51 -21 -61 -22 -28 -18 -34 20 -34 23 0 41 -8 55 -22 19
-21 21 -33 18 -145 l-3 -123 441 0 c329 0 443 3 452 12 17 17 17 1209 0 1226
-8 8 -53 12 -135 12 -116 0 -123 -1 -123 -20 0 -11 -9 -29 -20 -40 -19 -19
-33 -20 -220 -20 -187 0 -201 1 -220 20 -11 11 -20 29 -20 40 0 19 -7 20 -148
20 -102 0 -152 -4 -160 -12z m288 -42 c5 -14 18 -30 29 -35 12 -7 102 -11 235
-11 203 0 217 1 236 20 11 11 20 27 20 35 0 12 19 15 110 15 l110 0 0 -593 c0
-327 -2 -596 -4 -598 -2 -2 -191 -3 -420 -1 l-416 2 0 106 c0 119 -13 154 -62
175 -19 8 -27 17 -24 28 15 56 15 78 1 126 -10 36 -26 63 -50 84 l-35 30 0
321 0 320 130 0 c129 0 131 0 140 -24z"/>
<path d="M1531 1494 c-28 -35 -26 -69 4 -99 30 -30 64 -32 99 -4 33 26 36 79
6 109 -30 30 -83 27 -109 -6z"/>
<path d="M932 1498 c-16 -16 -16 -90 0 -106 9 -9 78 -12 249 -12 263 0 249 -4
249 69 0 20 -5 42 -12 49 -17 17 -469 17 -486 0z m466 -55 l-3 -38 -220 0
-220 0 -3 38 -3 37 226 0 226 0 -3 -37z"/>
<path d="M1560 1348 c-73 -27 -62 -129 15 -144 43 -8 85 26 85 70 0 60 -46 94
-100 74z"/>
<path d="M932 1338 c-18 -18 -15 -94 4 -112 13 -14 49 -16 235 -16 133 0 228
4 240 10 15 8 19 21 19 58 0 27 -5 53 -12 60 -17 17 -469 17 -486 0z m468 -58
l0 -40 -225 0 -225 0 0 40 0 40 225 0 225 0 0 -40z"/>
<path d="M1531 1164 c-28 -35 -26 -69 4 -99 48 -49 125 -16 125 53 0 69 -87
99 -129 46z"/>
<path d="M916 1154 c-3 -9 -6 -35 -6 -59 0 -34 5 -47 19 -55 12 -6 109 -10
246 -10 137 0 234 4 246 10 14 8 19 21 19 55 0 80 18 75 -265 75 -221 0 -254
-2 -259 -16z m492 -51 l3 -43 -235 0 -236 0 0 38 c0 21 3 42 7 46 4 3 108 5
232 4 l226 -3 3 -42z"/>
<path d="M584 1051 c-39 -23 -68 -91 -58 -135 20 -98 128 -143 212 -88 33 22
52 64 52 118 0 41 -5 51 -39 85 -34 35 -44 39 -87 39 -30 0 -61 -7 -80 -19z
m148 -38 c35 -33 43 -72 24 -116 -15 -37 -58 -67 -96 -67 -53 0 -110 57 -110
110 0 59 67 115 125 105 16 -3 42 -17 57 -32z"/>
<path d="M462 778 c-16 -16 -16 -220 0 -236 8 -8 67 -12 200 -12 221 0 208 -8
208 130 0 138 13 130 -208 130 -133 0 -192 -4 -200 -12z m378 -118 l0 -100
-180 0 -180 0 0 100 0 100 180 0 180 0 0 -100z"/>
</g>
</svg>
